<?xml version="1.0" standalone="no"?>
<!DOCTYPE svg PUBLIC "-//W3C//DTD SVG 20010904//EN"
 "http://www.w3.org/TR/2001/REC-SVG-20010904/DTD/svg10.dtd">
<svg version="1.0" xmlns="http://www.w3.org/2000/svg"
 width="1600.000000pt" height="1600.000000pt" viewBox="0 0 1600.000000 1600.000000"
 preserveAspectRatio="xMidYMid meet">
<metadata>
Created by potrace 1.14, written by Peter Selinger 2001-2017
</metadata>
<g transform="translate(0.000000,1600.000000) scale(0.100000,-0.100000)"
fill="#000000" stroke="none">
<path d="M7702 14659 c-1414 -61 -2760 -567 -3867 -1454 -349 -279 -715 -641
-996 -985 -1460 -1785 -1894 -4206 -1144 -6389 399 -1162 1116 -2192 2075
-2982 1547 -1276 3589 -1781 5572 -1378 1796 364 3372 1470 4341 3044 1091
1774 1286 3971 524 5920 -705 1806 -2199 3238 -4032 3868 -631 216 -1219 326
-1905 357 -246 11 -310 11 -568 -1z m-55 -2336 c-4 -3 -224 -124 -489 -268
l-483 -261 -3 -633 c-2 -500 -5 -632 -15 -628 -6 3 -214 101 -462 217 -247
117 -468 220 -491 230 l-40 18 -830 -332 -829 -332 -5 -332 -5 -332 -333 666
c-283 566 -330 666 -315 671 10 2 979 301 2153 663 1174 362 2139 659 2144
659 5 1 6 -2 3 -6z m1356 -320 c361 -180 657 -331 657 -335 0 -5 -298 -157
-663 -339 l-662 -331 -670 335 -670 334 660 331 c363 182 667 331 675 332 8 1
311 -147 673 -327z m2397 -858 c685 -257 1250 -470 1256 -473 8 -5 -103 -236
-322 -672 l-333 -665 0 420 -1 420 -1000 500 -1000 500 0 247 0 247 78 -28
c42 -16 637 -239 1322 -496z m-3895 -63 l490 -247 3 -418 2 -417 -500 250
-500 250 0 415 c0 228 3 415 8 415 4 0 228 -112 497 -248z m2165 -85 l0 -332
-665 -333 c-366 -182 -667 -332 -670 -332 -3 0 -5 151 -5 335 l0 335 658 329
c361 182 663 330 670 330 9 1 12 -72 12 -332z m-2835 -827 c633 -271 1153
-495 1158 -499 4 -4 -368 -157 -826 -340 l-833 -333 -993 579 c-546 319 -993
584 -993 589 0 11 1301 503 1322 500 8 -2 533 -225 1165 -496z m4160 168 c366
-183 665 -335 665 -338 0 -3 -449 -229 -998 -504 l-997 -498 -663 331 c-364
182 -662 334 -662 339 0 5 1968 997 1987 1001 2 1 302 -149 668 -331z m-5823
-1025 l828 -518 0 -399 0 -400 -37 36 c-21 19 -397 358 -835 752 l-798 717 0
165 c0 90 3 164 7 164 3 0 379 -233 835 -517z m6498 22 l0 -335 -1000 -500
c-550 -275 -1002 -500 -1005 -500 -3 0 -5 150 -5 333 l0 332 1003 502 c551
276 1003 502 1005 502 1 1 2 -150 2 -334z m-6337 -1166 c730 -638 1327 -1163
1327 -1167 0 -4 -374 -156 -832 -339 l-831 -332 -116 107 c-261 243 -1071 968
-1416 1268 -371 322 -638 540 -727 594 -32 19 -56 38 -55 42 3 9 1308 988
1317 988 4 0 604 -522 1333 -1161z m2667 828 l0 -333 -817 -327 c-450 -179
-826 -329 -836 -333 -16 -6 -17 12 -15 330 l3 336 820 329 c451 181 826 330
833 330 9 1 12 -72 12 -332z m845 85 l490 -247 3 -365 c1 -201 0 -370 -2 -376
-2 -6 -224 99 -505 240 l-501 251 0 373 c0 291 3 372 13 371 6 0 233 -111 502
-247z m3328 -1255 c471 -785 495 -828 474 -836 -330 -129 -4293 -1651 -4303
-1653 -8 -2 -211 256 -513 652 -275 360 -498 656 -496 658 12 13 4331 2019
4336 2014 3 -4 229 -380 502 -835z m-3626 257 c294 -136 531 -250 526 -255 -6
-6 -1689 -810 -1730 -826 -6 -2 -235 145 -509 328 -388 258 -495 334 -483 342
29 18 1624 655 1643 656 10 1 259 -110 553 -245z m-1547 -3038 l0 -1715 -1322
826 c-728 454 -1329 831 -1336 837 -9 9 -12 168 -10 750 l3 739 332 -286 333
-286 992 424 c546 233 996 424 1001 424 4 1 7 -770 7 -1713z m4668 572 l-3
-621 -2165 -833 -2165 -832 -3 668 c-1 368 -1 973 0 1345 l3 677 458 -556 457
-556 53 20 c28 11 792 310 1697 665 905 354 1651 644 1658 645 10 0 12 -127
10 -622z"/>
</g>
</svg>
